<?xml version="1.0" encoding="UTF-8" standalone="no"?>
<svg width="32px" height="32px" viewBox="0 0 32 32" version="1.1" xmlns="http://www.w3.org/2000/svg" xmlns:xlink="http://www.w3.org/1999/xlink">
    <!-- Generator: sketchtool 41.2 (35397) - http://www.bohemiancoding.com/sketch -->
    <title>BAAE608E-A03E-48EF-A4D5-55E098452742</title>
    <desc>Created with sketchtool.</desc>
    <defs></defs>
    <g id="Tablet/Web-Mobile-Alternate" stroke="none" stroke-width="1" fill="none" fill-rule="evenodd">
        <g id="AccountScreen" transform="translate(-1116.000000, -714.000000)" fill="#FFFFFF">
            <g id="Group-13" transform="translate(1059.000000, 704.000000)">
                <g id="Dynamic-group">
                    <g id="Group-15" transform="translate(57.000000, 10.000000)">
                        <g id="Group-10">
                            <g id="plus" transform="translate(4.000000, 4.000000)">
                                <g id="Capa_1">
                                    <path d="M12,0 C5.38338462,0 0,5.38292308 0,12 C0,18.6170769 5.38338462,24 12,24 C18.6166154,24 24,18.6170769 24,12 C24,5.38292308 18.6166154,0 12,0 Z M17.7692308,12.9230769 L12.9230769,12.9230769 L12.9230769,18 C12.9230769,18.5095385 12.5095385,18.9230769 12,18.9230769 C11.4904615,18.9230769 11.0769231,18.5095385 11.0769231,18 L11.0769231,12.9230769 L6.23076923,12.9230769 C5.72123077,12.9230769 5.30769231,12.5095385 5.30769231,12 C5.30769231,11.4904615 5.72123077,11.0769231 6.23076923,11.0769231 L11.0769231,11.0769231 L11.0769231,6.46153846 C11.0769231,5.952 11.4904615,5.53846154 12,5.53846154 C12.5095385,5.53846154 12.9230769,5.952 12.9230769,6.46153846 L12.9230769,11.0769231 L17.7692308,11.0769231 C18.2787692,11.0769231 18.6923077,11.4904615 18.6923077,12 C18.6923077,12.5095385 18.2787692,12.9230769 17.7692308,12.9230769 Z" id="Shape"></path>
                                </g>
                            </g>
                        </g>
                    </g>
                </g>
            </g>
        </g>
    </g>
</svg>