<?xml version="1.0" encoding="UTF-8" standalone="no"?>
<svg width="32px" height="32px" viewBox="0 0 32 32" version="1.1" xmlns="http://www.w3.org/2000/svg" xmlns:xlink="http://www.w3.org/1999/xlink">
    <!-- Generator: sketchtool 41.2 (35397) - http://www.bohemiancoding.com/sketch -->
    <title>8D3BC069-8BE0-4F0B-958B-D23D247BAC13</title>
    <desc>Created with sketchtool.</desc>
    <defs></defs>
    <g id="Tablet/Web-Mobile-Alternate" stroke="none" stroke-width="1" fill="none" fill-rule="evenodd">
        <g id="AccountScreen" transform="translate(-781.000000, -713.000000)" fill="#FFFFFF">
            <g id="Group-13" transform="translate(748.000000, 704.000000)">
                <g id="Dynamic-group">
                    <g id="Group-14" transform="translate(33.000000, 9.000000)">
                        <g id="Group-2">
                            <g id="customer" transform="translate(3.000000, 4.000000)">
                                <g id="Layer_1">
                                    <g id="Group">
                                        <path d="M13.4735263,6.9389345 C15.3931579,6.9389345 16.9548421,5.38401747 16.9548421,3.47282096 C16.9548421,1.56162445 15.3931053,0.00670742358 13.4735263,0.00670742358 C11.5538947,0.00670742358 9.99221053,1.56162445 9.99221053,3.47282096 C9.99221053,5.38401747 11.5538947,6.9389345 13.4735263,6.9389345 Z" id="Shape"></path>
                                        <path d="M7.85931579,15.287476 L19.0877895,15.287476 C19.5518947,15.287476 19.9281579,14.9128559 19.9281579,14.4507773 C19.9281579,10.907214 17.0326316,8.02438428 13.4735789,8.02438428 C9.91452632,8.02438428 7.01894737,10.907214 7.01894737,14.4507773 C7.01894737,14.9128559 7.39521053,15.287476 7.85931579,15.287476 Z" id="Shape"></path>
                                        <path d="M16.8651579,18.4991266 L15.0424211,18.2353886 L14.2272632,16.5909694 C13.9194737,15.9699563 13.0277368,15.9703755 12.7201053,16.5909694 L11.9049474,18.2353886 L10.0822105,18.4991266 C9.39394737,18.59869 9.11873684,19.4431965 9.61647368,19.9262358 L10.9353684,21.2062533 L10.624,23.0136943 C10.5064211,23.6962271 11.2280526,24.2177293 11.8433158,23.8957205 L13.4736316,23.0424105 L15.1039474,23.8957205 C15.7142105,24.2151616 16.4417368,23.70131 16.3232632,23.0136943 L16.0118947,21.2062533 L17.3307895,19.9262358 C17.8288947,19.4428297 17.553,18.5986376 16.8651579,18.4991266 Z" id="Shape"></path>
                                        <path d="M7.50263158,18.4991266 L5.67989474,18.2353886 L4.86473684,16.5909694 C4.55694737,15.9700611 3.66521053,15.9703755 3.35757895,16.5909694 L2.54247368,18.2353886 L0.719736842,18.4991266 C0.0314736842,18.59869 -0.243684211,19.4431965 0.254,19.9262358 L1.57289474,21.2062533 L1.26152632,23.0136943 C1.14394737,23.6962271 1.86557895,24.2177293 2.48084211,23.8957205 L4.11115789,23.0423581 L5.74147368,23.8957205 C6.35173684,24.2151616 7.07926316,23.70131 6.96078947,23.0136943 L6.64942105,21.2062533 L7.96836842,19.9262358 C8.46642105,19.4428297 8.19047368,18.5986376 7.50263158,18.4991266 Z" id="Shape"></path>
                                        <path d="M26.2275789,18.4991266 L24.4048421,18.2353886 L23.5897368,16.5909694 C23.3372632,16.0815721 22.7800526,16.1245415 22.8361579,16.1245415 C22.5163158,16.1245415 22.2241579,16.3053799 22.0825789,16.5909694 L21.2674211,18.2353886 L19.4446842,18.4991266 C18.7564211,18.59869 18.4812632,19.4431965 18.9789474,19.9262358 L20.2979474,21.2062533 L19.9865789,23.0136943 C19.869,23.6962271 20.5905789,24.2177293 21.2058947,23.8957205 L22.8362105,23.0423581 L24.4665263,23.8957205 C25.0767895,24.2151616 25.8043158,23.70131 25.6858421,23.0136943 L25.3744737,21.2062533 L26.6934211,19.9262358 C27.1913158,19.4429345 26.9155263,18.5986376 26.2275789,18.4991266 Z" id="Shape"></path>
                                    </g>
                                </g>
                            </g>
                        </g>
                    </g>
                </g>
            </g>
        </g>
    </g>
</svg>