<?xml version="1.0" encoding="UTF-8" standalone="no"?>
<svg width="32px" height="32px" viewBox="0 0 32 32" version="1.1" xmlns="http://www.w3.org/2000/svg" xmlns:xlink="http://www.w3.org/1999/xlink">
    <!-- Generator: sketchtool 41.2 (35397) - http://www.bohemiancoding.com/sketch -->
    <title>AB2CD71A-421F-4736-8281-58E0C966D20B</title>
    <desc>Created with sketchtool.</desc>
    <defs></defs>
    <g id="Tablet/Web-Mobile-Alternate" stroke="none" stroke-width="1" fill="none" fill-rule="evenodd">
        <g id="AccountScreen" transform="translate(-459.000000, -714.000000)" fill="#FFFFFF">
            <g id="Group-13" transform="translate(437.000000, 704.000000)">
                <g id="Dynamic-group">
                    <g id="Group-12" transform="translate(22.000000, 10.000000)">
                        <g id="Group">
                            <g id="document" transform="translate(4.000000, 4.000000)">
                                <g id="Layer_1">
                                    <g id="Group">
                                        <rect id="Rectangle-path" x="7.02008" y="14.43648" width="7.46952" height="0.82992"></rect>
                                        <rect id="Rectangle-path" x="7.02008" y="12.59552" width="7.46952" height="0.82992"></rect>
                                        <rect id="Rectangle-path" x="7.02008" y="10.75464" width="7.46952" height="0.82992"></rect>
                                        <rect id="Rectangle-path" x="7.02008" y="16.38336" width="7.46952" height="0.82992"></rect>
                                        <path d="M11.99976,0 C5.37248,0 0,5.37248 0,11.99976 C0,18.62704 5.37248,23.99952 11.99976,23.99952 C18.62704,23.99952 23.99952,18.62704 23.99952,11.99976 C23.99952,5.37248 18.62712,0 11.99976,0 Z M16.13128,16.95624 L16.13128,18.41424 C16.13128,19.21952 15.47856,19.87224 14.67368,19.87224 L6.83624,19.87224 C6.03096,19.87224 5.37824,19.21952 5.37824,18.41424 L5.37824,7.66104 C5.37824,6.85576 6.0308,6.20304 6.83624,6.20304 L14.6736,6.20304 C15.47888,6.20304 16.13144,6.85576 16.1312,7.66128 C16.13128,7.66128 16.13128,9.11904 16.13128,9.11904 L16.13128,16.95624 L16.13128,16.95624 Z M17.99888,15.0888 L17.99888,16.54616 C17.99888,17.20512 17.56152,17.7616 16.9612,17.94216 L16.9612,16.95616 L16.9612,9.1188 L16.9612,7.66104 C16.9612,6.39952 15.93496,5.37312 14.67368,5.37312 L7.30792,5.37312 C7.48864,4.77288 8.04472,4.33544 8.70392,4.33544 L16.54128,4.33544 C17.34616,4.33544 17.99888,4.9884 17.99864,5.79368 L17.99864,7.25152 L17.99888,7.25152 L17.99888,15.0888 Z" id="Shape"></path>
                                        <rect id="Rectangle-path" x="7.02008" y="8.91344" width="7.46952" height="0.82992"></rect>
                                    </g>
                                </g>
                            </g>
                        </g>
                    </g>
                </g>
            </g>
        </g>
    </g>
</svg>